#!OML:ASF X:\für Bonn\!DataBase\2005_08_10_Bjorn_Final\c3d\bjorn.ASF
:FULLY-SPECIFIED
:DEGREES
78
root -20.9845 19.446 -0.411874 -308.289 -88.7915 -47.1192
lowerback -12.6097 5.04312 -6.40687
upperback 4.5078 8.44198 -6.92213
thorax 12.2531 3.72852 -2.12915
lowerneck -2.37745 -6.96291 5.88352
upperneck 15.7206 -10.319 1.17016
head 4.90825 -4.76819 -1.087
rclavicle 2.50469e-014 -6.99722e-014
rhumerus 47.5779 5.72392 -40.2424
rradius 46.7205
rwrist -22.8213
rhand 0.673155 1.15356
rfingers 7.12502
rthumb 26.235 -27.053
lclavicle 2.50469e-014 -6.99722e-014
lhumerus -21.5204 7.40764 78.3394
lradius 16.5218
lwrist -38.0677
lhand -17.7849 -2.34809
lfingers 7.12502
lthumb 8.47796 27.4617
rfemur -11.8726 -13.0647 17.3216
rtibia 24.9996
rfoot -9.03809 20.9537
rtoes 3.46247
lfemur -12.6862 16.9267 -16.0713
ltibia 24.9098
lfoot -7.8753 -16.5789
ltoes 2.63947
79
root -20.9841 19.446 -0.413924 -305.956 -88.7997 -49.4455
lowerback -12.6195 5.06509 -6.4538
upperback 4.51507 8.48143 -6.93581
thorax 12.2637 3.74295 -2.10933
lowerneck -2.43776 -6.95962 5.76673
upperneck 16.0667 -10.3546 1.26775
head 5.03655 -4.77681 -1.05432
rclavicle 1.19271e-014 -1.62208e-013
rhumerus 47.54 5.7237 -40.0152
rradius 46.7626
rwrist -23.0633
rhand 0.630988 1.48358
rfingers 7.12502
rthumb 26.1946 -26.7289
lclavicle 1.19271e-014 -1.62208e-013
lhumerus -21.5695 7.49593 78.2843
lradius 16.4307
lwrist -38.4222
lhand -17.6686 -2.3635
lfingers 7.12502
lthumb 8.59018 27.4418
rfemur -11.8921 -13.0439 17.3572
rtibia 25.0058
rfoot -8.9897 20.9814
rtoes 3.60055
lfemur -12.6875 16.9335 -16.037
ltibia 24.909
lfoot -7.87981 -16.5387
ltoes 2.64258
80
root -20.9837 19.4456 -0.416229 -303.416 -88.8114 -52.0002
lowerback -12.6019 5.1023 -6.48598
upperback 4.52009 8.53595 -6.95732
thorax 12.2588 3.76669 -2.10501
lowerneck -2.45501 -6.97275 5.62202
upperneck 16.3849 -10.4151 1.42019
head 5.15346 -4.79748 -0.999222
rclavicle 9.38264e-014 -8.5875e-014
rhumerus 47.436 5.73137 -39.7754
rradius 46.8525
rwrist -23.3648
rhand 0.591987 1.79361
rfingers 7.12502
rthumb 26.1573 -26.4244
lclavicle 9.38264e-014 -8.5875e-014
lhumerus -21.6287 7.58715 78.2162
lradius 16.3344
lwrist -38.8808
lhand -17.5551 -2.34793
lfingers 7.12502
lthumb 8.69966 27.4528
rfemur -11.8878 -12.9521 17.3896
rtibia 25.0101
rfoot -8.99293 20.9546
rtoes 3.56871
lfemur -12.6611 16.9463 -15.9979
ltibia 24.9128
lfoot -7.91777 -16.4781
ltoes 2.53872
81
root -20.9839 19.4467 -0.418007 -300.724 -88.8348 -54.6923
lowerback -12.6029 5.14558 -6.51557
upperback 4.52724 8.60162 -6.9913
thorax 12.2703 3.79567 -2.1119
lowerneck -2.52759 -6.97922 5.51919
upperneck 16.7469 -10.4763 1.55972
head 5.29112 -4.81472 -0.958153
rclavicle 5.36719e-014 1.27222e-014
rhumerus 47.2731 5.68475 -39.6368
rradius 46.9641
rwrist -23.5634
rhand 0.607538 2.17334
rfingers 7.12502
rthumb 26.1722 -26.0425
lclavicle 5.36719e-014 1.27222e-014
lhumerus -21.6671 7.71296 78.1248
lradius 16.2096
lwrist -39.3986
lhand -17.4473 -2.33865
lfingers 7.12502
lthumb 8.80374 27.4577
rfemur -11.8967 -12.9252 17.4101
rtibia 25.0116
rfoot -8.97818 20.9926
rtoes 3.59221
lfemur -12.6514 16.9667 -15.9764
ltibia 24.9171
lfoot -7.94538 -16.4388
ltoes 2.4687
82
root -20.9834 19.4466 -0.419202 -297.959 -88.8566 -57.4576
lowerback -12.6034 5.17611 -6.52984
upperback 4.53298 8.64751 -7.02434
thorax 12.2819 3.81663 -2.13046
lowerneck -2.57419 -6.97436 5.46954
upperneck 17.0813 -10.5139 1.64237
head 5.41072 -4.82209 -0.93935
rclavicle 1.66979e-013 -1.20861e-013
rhumerus 47.0971 5.65014 -39.5154
rradius 47.1409
rwrist -23.7605
rhand 0.628053 2.55497
rfingers 7.12502
rthumb 26.1918 -25.658
lclavicle 1.66979e-013 -1.20861e-013
lhumerus -21.7173 7.87314 78.0153
lradius 16.09
lwrist -39.9504
lhand -17.3157 -2.31584
lfingers 7.12502
lthumb 8.93071 27.4752
rfemur -11.9094 -12.9328 17.4242
rtibia 25.014
rfoot -8.90447 21.0628
rtoes 3.7734
lfemur -12.6432 16.9864 -15.961
ltibia 24.9205
lfoot -7.98324 -16.3714
ltoes 2.35672
83
root -20.9832 19.4466 -0.420472 -293.804 -88.8726 -61.6048
lowerback -12.604 5.21676 -6.52658
upperback 4.52921 8.70309 -7.05463
thorax 12.2846 3.84399 -2.15333
lowerneck -2.69741 -6.97215 5.53669
upperneck 17.4923 -10.5598 1.62299
head 5.55601 -4.8297 -0.975377
rclavicle -1.23246e-014 1.59028e-014
rhumerus 46.8656 5.59243 -39.4721
rradius 47.3804
rwrist -23.8946
rhand 0.63089 2.95987
rfingers 7.12502
rthumb 26.1945 -25.2527
lclavicle -1.23246e-014 1.59028e-014
lhumerus -21.7637 8.0162 77.9062
lradius 15.9591
lwrist -40.5104
lhand -17.176 -2.29621
lfingers 7.12502
lthumb 9.06556 27.489
rfemur -11.9308 -12.8804 17.457
rtibia 25.0158
rfoot -8.84952 21.0941
rtoes 3.90289
lfemur -12.64 17.0279 -15.9285
ltibia 24.9229
lfoot -8.00175 -16.3327
ltoes 2.32136
84
root -20.9829 19.4464 -0.422 -290.234 -88.8771 -65.182
lowerback -12.5925 5.26063 -6.52046
upperback 4.54 8.76246 -7.08224
thorax 12.2971 3.87289 -2.17482
lowerneck -2.80348 -6.97223 5.63561
upperneck 17.8467 -10.6045 1.59541
head 5.67903 -4.83687 -1.01647
rclavicle -4.77083e-014 -6.36111e-014
rhumerus 46.5846 5.47295 -39.5129
rradius 47.6937
rwrist -23.9837
rhand 0.619419 3.32198
rfingers 7.12502
rthumb 26.1835 -24.8922
lclavicle -4.77083e-014 -6.36111e-014
lhumerus -21.7751 8.27656 77.7703
lradius 15.7801
lwrist -41.2184
lhand -17.0511 -2.30171
lfingers 7.12502
lthumb 9.18608 27.4782
rfemur -11.9376 -12.8583 17.491
rtibia 25.0179
rfoot -8.82421 21.1336
rtoes 3.93465
lfemur -12.6183 17.0563 -15.8884
ltibia 24.9285
lfoot -8.01885 -16.2817
ltoes 2.35348
85
root -20.9822 19.4464 -0.423049 -286.904 -88.8907 -68.5108
lowerback -12.5788 5.29904 -6.50919
upperback 4.53926 8.8132 -7.12528
thorax 12.2984 3.89922 -2.21836
lowerneck -2.89856 -6.95593 5.73962
upperneck 18.2077 -10.634 1.59697
head 5.80452 -4.83441 -1.04872
rclavicle -2.54444e-014 1.27222e-014
rhumerus 46.2572 5.33715 -39.6441
rradius 48.1076
rwrist -24.0789
rhand 0.53732 3.62256
rfingers 7.12502
rthumb 26.1049 -24.6032
lclavicle -2.54444e-014 1.27222e-014
lhumerus -21.815 8.40194 77.6432
lradius 15.6276
lwrist -41.7699
lhand -16.925 -2.31889
lfingers 7.12502
lthumb 9.30774 27.4556
rfemur -11.9538 -12.8123 17.5061
rtibia 25.0246
rfoot -8.76502 21.1715
rtoes 4.10985
lfemur -12.6102 17.082 -15.8748
ltibia 24.9287
lfoot -8.06213 -16.2315
ltoes 2.19136
86
root -20.9818 19.4462 -0.424309 -282.548 -88.8896 -72.8743
lowerback -12.5626 5.34041 -6.49551
upperback 4.54061 8.86577 -7.14343
thorax 12.2963 3.92586 -2.23547
lowerneck -2.97003 -6.94768 5.79854
upperneck 18.5597 -10.6695 1.60256
head 5.92576 -4.83772 -1.07188
rclavicle 6.59965e-014 -1.59028e-014
rhumerus 45.8848 5.15777 -39.8706
rradius 48.6207
rwrist -24.1158
rhand 0.435658 3.88629
rfingers 7.12502
rthumb 26.0076 -24.3538
lclavicle 6.59965e-014 -1.59028e-014
lhumerus -21.8429 8.70377 77.5034
lradius 15.4337
lwrist -42.5005
lhand -16.792 -2.31746
lfingers 7.12502
lthumb 9.43602 27.4513
rfemur -11.9632 -12.7896 17.539
rtibia 25.0336
rfoot -8.74079 21.2257
rtoes 4.13963
lfemur -12.5887 17.1258 -15.836
ltibia 24.929
lfoot -8.06102 -16.178
ltoes 2.20282
87
root -20.9815 19.4453 -0.425496 -279.649 -88.9072 -75.7864
lowerback -12.551 5.37015 -6.49957
upperback 4.56349 8.90897 -7.17039
thorax 12.3211 3.9457 -2.25429
lowerneck -3.07709 -6.92667 5.86148
upperneck 18.9078 -10.6907 1.60863
head 6.05231 -4.83272 -1.09637
rclavicle 3.89618e-014 -4.13472e-014
rhumerus 45.5054 4.89463 -40.2702
rradius 49.2055
rwrist -24.0627
rhand 0.30307 4.07601
rfingers 7.12502
rthumb 25.8806 -24.1827
lclavicle 3.89618e-014 -4.13472e-014
lhumerus -21.8246 9.0815 77.3392
lradius 15.21
lwrist -43.2802
lhand -16.6747 -2.4026
lfingers 7.12502
lthumb 9.54919 27.361
rfemur -11.9605 -12.7437 17.5343
rtibia 25.0402
rfoot -8.69522 21.2451
rtoes 4.23035
lfemur -12.5634 17.1431 -15.8293
ltibia 24.9305
lfoot -8.07888 -16.1412
ltoes 2.18607
88
root -20.9807 19.4453 -0.426283 -276.549 -88.9081 -78.8859
lowerback -12.5295 5.40416 -6.47877
upperback 4.56659 8.95115 -7.20351
thorax 12.3219 3.96854 -2.29454
lowerneck -3.16706 -6.90927 5.95519
upperneck 19.2678 -10.7193 1.60607
head 6.17813 -4.83004 -1.12837
rclavicle -7.95139e-015 6.36111e-014
rhumerus 45.0484 4.56427 -40.8249
rradius 49.915
rwrist -24.0057
rhand 0.177375 4.12755
rfingers 7.12502
rthumb 25.7603 -24.1487
lclavicle -7.95139e-015 6.36111e-014
lhumerus -21.8179 9.48127 77.1413
lradius 14.9627
lwrist -44.1122
lhand -16.5982 -2.47944
lfingers 7.12502
lthumb 9.623 27.2808
rfemur -11.9814 -12.7514 17.5514
rtibia 25.0457
rfoot -8.6406 21.3015
rtoes 4.36142
lfemur -12.5573 17.1632 -15.8167
ltibia 24.9329
lfoot -8.11412 -16.074
ltoes 2.07404
